<?xml version="1.0" encoding="UTF-8" standalone="no"?>
<!-- Generator: Adobe Illustrator 13.0.2, SVG Export Plug-In . SVG Version: 6.00 Build 14948)  -->

<svg
   xmlns:dc="http://purl.org/dc/elements/1.1/"
   xmlns:cc="http://creativecommons.org/ns#"
   xmlns:rdf="http://www.w3.org/1999/02/22-rdf-syntax-ns#"
   xmlns:svg="http://www.w3.org/2000/svg"
   xmlns="http://www.w3.org/2000/svg"
   xmlns:sodipodi="http://sodipodi.sourceforge.net/DTD/sodipodi-0.dtd"
   xmlns:inkscape="http://www.inkscape.org/namespaces/inkscape"
   version="1.1"
   id="svg2"
   sodipodi:docname="icon.svg"
   sodipodi:version="0.32"
   inkscape:export-ydpi="50.415062"
   inkscape:export-xdpi="50.415062"
   inkscape:version="0.92.2 2405546, 2018-03-11"
   inkscape:export-filename="/home/petri/Desktop/Omat Open ClipArt kuvat/ABC_Block.png"
   x="0px"
   y="0px"
   width="289.672"
   height="275.21701"
   viewBox="-4.718 167.7 289.672 275.21701"
   xml:space="preserve"><metadata
   id="metadata491"><rdf:RDF><cc:Work
       rdf:about=""><dc:format>image/svg+xml</dc:format><dc:type
         rdf:resource="http://purl.org/dc/dcmitype/StillImage" /><dc:title></dc:title></cc:Work></rdf:RDF></metadata><defs
   id="defs489" />
<sodipodi:namedview
   inkscape:document-units="px"
   inkscape:zoom="0.60938539"
   inkscape:window-x="0"
   inkscape:pageshadow="2"
   inkscape:pageopacity="0.0"
   showborder="false"
   inkscape:window-height="964"
   inkscape:window-width="1280"
   inkscape:window-y="0"
   pagecolor="#ffffff"
   bordercolor="#666666"
   borderopacity="1.0"
   inkscape:cx="159.6955"
   inkscape:current-layer="g1370"
   inkscape:cy="115.70286"
   id="base"
   showgrid="false"
   inkscape:window-maximized="1">
	</sodipodi:namedview>
<g
   id="layer1"
   inkscape:label="Layer 1"
   inkscape:groupmode="layer"
   transform="translate(-6e-4,-273.0746)">
	<g
   id="g1370"
   transform="translate(-459.8974,-181.9364)"
   inkscape:label="Layer 1"
   inkscape:groupmode="layer">
		
			<linearGradient
   id="rect1291_1_"
   gradientUnits="userSpaceOnUse"
   x1="408.06049"
   y1="492.11411"
   x2="414.68881"
   y2="492.1138"
   gradientTransform="matrix(0.9989,0,0,-1.0011,47.5955,1282.4106)">
			<stop
   offset="0"
   style="stop-color:#CDB16A"
   id="stop3" />
			<stop
   offset="0.0944"
   style="stop-color:#AD9D5F"
   id="stop5" />
			<stop
   offset="0.1416"
   style="stop-color:#B7A154"
   id="stop7" />
			<stop
   offset="0.1652"
   style="stop-color:#C28947"
   id="stop9" />
			<stop
   offset="0.1888"
   style="stop-color:#C9AC46"
   id="stop11" />
			<stop
   offset="0.1888"
   style="stop-color:#C0891F"
   id="stop13" />
			<stop
   offset="0.1888"
   style="stop-color:#BA883A"
   id="stop15" />
			<stop
   offset="0.1888"
   style="stop-color:#BDA976"
   id="stop17" />
			<stop
   offset="0.7132"
   style="stop-color:#C5AD4A"
   id="stop19" />
			<stop
   offset="0.7263"
   style="stop-color:#CDA955"
   id="stop21" />
			<stop
   offset="0.7263"
   style="stop-color:#D5AD43"
   id="stop23" />
			<stop
   offset="0.7394"
   style="stop-color:#D7A13C"
   id="stop25" />
			<stop
   offset="0.7525"
   style="stop-color:#B5955B"
   id="stop27" />
			<stop
   offset="0.7656"
   style="stop-color:#BEB459"
   id="stop29" />
			<stop
   offset="0.8173"
   style="stop-color:#B8A46C"
   id="stop31" />
			<stop
   offset="0.869"
   style="stop-color:#A39E35"
   id="stop33" />
			<stop
   offset="1"
   style="stop-color:#A8A056"
   id="stop35" />
		</linearGradient>
		<rect
   id="rect1291"
   x="455.20901"
   y="681.92798"
   style="fill:url(#rect1291_1_)"
   width="215.17999"
   height="215.658" />
		
			<linearGradient
   id="rect1293_1_"
   gradientUnits="userSpaceOnUse"
   x1="768.13373"
   y1="119.4222"
   x2="779.90417"
   y2="113.9197"
   gradientTransform="matrix(1.5188,0.0028,0.5171,-0.4075,-703.1861,688.5486)">
			<stop
   offset="0"
   style="stop-color:#CDB16A"
   id="stop39" />
			<stop
   offset="0.0944"
   style="stop-color:#AD9D5F"
   id="stop41" />
			<stop
   offset="0.1416"
   style="stop-color:#B7A154"
   id="stop43" />
			<stop
   offset="0.1652"
   style="stop-color:#C28947"
   id="stop45" />
			<stop
   offset="0.1888"
   style="stop-color:#C9AC46"
   id="stop47" />
			<stop
   offset="0.1888"
   style="stop-color:#C0891F"
   id="stop49" />
			<stop
   offset="0.1888"
   style="stop-color:#BA883A"
   id="stop51" />
			<stop
   offset="0.1888"
   style="stop-color:#BDA976"
   id="stop53" />
			<stop
   offset="0.7132"
   style="stop-color:#C5AD4A"
   id="stop55" />
			<stop
   offset="0.7263"
   style="stop-color:#CDA955"
   id="stop57" />
			<stop
   offset="0.7263"
   style="stop-color:#D5AD43"
   id="stop59" />
			<stop
   offset="0.7394"
   style="stop-color:#D7A13C"
   id="stop61" />
			<stop
   offset="0.7525"
   style="stop-color:#B5955B"
   id="stop63" />
			<stop
   offset="0.7656"
   style="stop-color:#BEB459"
   id="stop65" />
			<stop
   offset="0.8173"
   style="stop-color:#B8A46C"
   id="stop67" />
			<stop
   offset="0.869"
   style="stop-color:#A39E35"
   id="stop69" />
			<stop
   offset="1"
   style="stop-color:#A8A056"
   id="stop71" />
		</linearGradient>
		<polygon
   id="rect1293"
   style="fill:url(#rect1293_1_)"
   points="670.411,682.346 455.18,681.95 528.466,624.194 743.697,624.59 " />
		
			<linearGradient
   id="rect1295_1_"
   gradientUnits="userSpaceOnUse"
   x1="861.95209"
   y1="508.59119"
   x2="864.95697"
   y2="528.34851"
   gradientTransform="matrix(-3.325862e-5,1.5124,-0.5202,0.4082,1017.4908,-806.7212)">
			<stop
   offset="0"
   style="stop-color:#CDB16A"
   id="stop75" />
			<stop
   offset="0.0944"
   style="stop-color:#AD9D5F"
   id="stop77" />
			<stop
   offset="0.1416"
   style="stop-color:#B7A154"
   id="stop79" />
			<stop
   offset="0.1652"
   style="stop-color:#C28947"
   id="stop81" />
			<stop
   offset="0.1888"
   style="stop-color:#C9AC46"
   id="stop83" />
			<stop
   offset="0.1888"
   style="stop-color:#C0891F"
   id="stop85" />
			<stop
   offset="0.1888"
   style="stop-color:#BA883A"
   id="stop87" />
			<stop
   offset="0.1888"
   style="stop-color:#BDA976"
   id="stop89" />
			<stop
   offset="0.7132"
   style="stop-color:#C5AD4A"
   id="stop91" />
			<stop
   offset="0.7263"
   style="stop-color:#CDA955"
   id="stop93" />
			<stop
   offset="0.7263"
   style="stop-color:#D5AD43"
   id="stop95" />
			<stop
   offset="0.7394"
   style="stop-color:#D7A13C"
   id="stop97" />
			<stop
   offset="0.7525"
   style="stop-color:#B5955B"
   id="stop99" />
			<stop
   offset="0.7656"
   style="stop-color:#BEB459"
   id="stop101" />
			<stop
   offset="0.8173"
   style="stop-color:#B8A46C"
   id="stop103" />
			<stop
   offset="0.869"
   style="stop-color:#A39E35"
   id="stop105" />
			<stop
   offset="1"
   style="stop-color:#A8A056"
   id="stop107" />
		</linearGradient>
		<polygon
   id="rect1295"
   style="fill:url(#rect1295_1_)"
   points="743.743,839.633 743.748,624.502 669.754,682.561 669.749,897.692 " />
		<path
   id="rect2844"
   style="fill:#009815"
   d="m 481.365,692.047 c -8.612,0 -15.562,6.918 -15.562,15.531 V 868.64 c 0,8.611 6.95,15.531 15.562,15.531 h 162.906 c 8.612,0 15.562,-6.92 15.562,-15.531 V 707.578 c 0,-8.613 -6.95,-15.531 -15.562,-15.531 z m 15.531,17.094 h 129.969 c 8.612,0 15.562,6.918 15.562,15.531 v 126.25 c 0,8.611 -6.95,15.531 -15.562,15.531 H 496.896 c -8.612,0 -15.531,-6.92 -15.531,-15.531 v -126.25 c 0,-8.613 6.919,-15.531 15.531,-15.531 z"
   inkscape:connector-curvature="0" />
		
			<linearGradient
   id="rect4707_1_"
   gradientUnits="userSpaceOnUse"
   x1="1345.7549"
   y1="-403.67981"
   x2="1352.2583"
   y2="-404.12149"
   gradientTransform="matrix(1.5188,0.0028,0.5171,-0.4075,-1340.3306,482.8347)">
			<stop
   offset="0"
   style="stop-color:#CDB16A"
   id="stop112" />
			<stop
   offset="0.0944"
   style="stop-color:#AD9D5F"
   id="stop114" />
			<stop
   offset="0.1416"
   style="stop-color:#B7A154"
   id="stop116" />
			<stop
   offset="0.1652"
   style="stop-color:#C28947"
   id="stop118" />
			<stop
   offset="0.1888"
   style="stop-color:#C9AC46"
   id="stop120" />
			<stop
   offset="0.1888"
   style="stop-color:#C0891F"
   id="stop122" />
			<stop
   offset="0.1888"
   style="stop-color:#BA883A"
   id="stop124" />
			<stop
   offset="0.1888"
   style="stop-color:#BDA976"
   id="stop126" />
			<stop
   offset="0.7132"
   style="stop-color:#C5AD4A"
   id="stop128" />
			<stop
   offset="0.7263"
   style="stop-color:#CDA955"
   id="stop130" />
			<stop
   offset="0.7263"
   style="stop-color:#D5AD43"
   id="stop132" />
			<stop
   offset="0.7394"
   style="stop-color:#D7A13C"
   id="stop134" />
			<stop
   offset="0.7525"
   style="stop-color:#B5955B"
   id="stop136" />
			<stop
   offset="0.7656"
   style="stop-color:#BEB459"
   id="stop138" />
			<stop
   offset="0.8173"
   style="stop-color:#B8A46C"
   id="stop140" />
			<stop
   offset="0.869"
   style="stop-color:#A39E35"
   id="stop142" />
			<stop
   offset="1"
   style="stop-color:#A8A056"
   id="stop144" />
		</linearGradient>
		<polygon
   id="rect4707"
   style="fill:url(#rect4707_1_)"
   points="670.411,682.346 455.18,681.95 528.466,624.194 743.697,624.59 " />
		<path
   id="path3607"
   style="fill:#009815"
   d="m 546.301,630.178 c -8.499,0 -17.315,1.635 -19.751,3.668 l -45.562,38.039 c -2.436,2.033 2.465,3.668 10.964,3.668 h 160.762 c 8.499,0 17.315,-1.635 19.751,-3.668 l 45.562,-38.039 c 2.437,-2.033 -2.465,-3.668 -10.964,-3.668 z m 10.491,4.037 H 685.05 c 8.499,0 13.4,1.635 10.964,3.668 L 660.3,667.7 c -2.437,2.035 -11.252,3.668 -19.751,3.668 H 512.29 c -8.499,0 -13.369,-1.633 -10.933,-3.668 l 35.714,-29.816 c 2.437,-2.034 11.222,-3.669 19.721,-3.669 z"
   inkscape:connector-curvature="0" />
		<path
   id="path1305"
   style="fill:#009815"
   d="m 679.063,701.188 c -0.018,-8.676 2.062,-17.318 4.671,-19.361 l 48.776,-38.215 c 2.607,-2.043 4.718,3.316 4.736,11.992 l 0.342,164.09 c 0.019,8.676 -2.062,17.316 -4.671,19.361 l -48.776,38.213 c -2.608,2.045 -4.718,-3.314 -4.736,-11.99 z m 5.209,11.588 0.272,130.914 c 0.019,8.674 2.129,14.033 4.736,11.99 l 38.234,-29.955 c 2.608,-2.043 4.688,-10.686 4.671,-19.359 l -0.273,-130.914 c -0.018,-8.676 -2.128,-14.002 -4.736,-11.959 l -38.233,29.955 c -2.608,2.043 -4.689,10.654 -4.671,19.328 z"
   inkscape:connector-curvature="0" />
		<g
   style="enable-background:new"
   id="g152">
			<path
   style="fill:#009815"
   d="m 532.901,803.771 c -1.481,3.494 -10.554,26.288 -10.554,31.612 0,3.661 1.667,7.654 7.221,7.654 h 6.48 c 1.852,0 2.037,0.665 2.037,1.331 v 3.66 c 0,1.331 -0.185,1.83 -1.667,1.83 -2.407,0 -9.998,-0.499 -25.18,-0.499 -13.516,0 -17.589,0.499 -20.182,0.499 -1.111,0 -1.296,-0.998 -1.296,-2.163 v -3.161 c 0,-0.998 0.185,-1.497 1.296,-1.497 h 4.814 c 4.444,0 8.887,-2.33 12.59,-7.321 2.592,-3.494 15.738,-32.444 21.848,-47.086 1.481,-3.327 16.479,-39.1 18.145,-43.592 0.556,-1.664 1.481,-3.827 0.185,-5.657 -0.555,-0.665 -1.296,-1.497 -1.296,-2.163 0,-0.499 0.371,-1.164 1.852,-1.497 5.925,-1.165 17.959,-5.49 20.737,-8.319 0.926,-0.832 1.481,-1.497 2.407,-1.497 1.111,0 1.481,0.998 2.037,2.828 3.518,10.482 17.959,47.752 21.477,58.4 4.259,12.978 16.293,43.925 18.885,48.417 3.148,5.49 7.962,7.487 10.739,7.487 h 6.295 c 1.111,0 1.296,0.665 1.296,1.497 v 3.161 c 0,0.998 -0.185,2.163 -1.667,2.163 -3.518,0 -7.406,-0.499 -31.105,-0.499 -15.368,0 -21.848,0.499 -25.551,0.499 -1.852,0 -2.037,-0.998 -2.037,-2.163 v -3.161 c 0,-0.832 0.185,-1.497 1.111,-1.497 h 5.184 c 4.999,0 6.666,-1.664 5.555,-5.99 -1.667,-5.989 -8.887,-27.286 -11.109,-33.276 z m 38.882,-6.655 c -1.667,-4.991 -12.59,-39.932 -13.886,-44.091 -0.741,-2.496 -1.111,-3.66 -2.037,-3.66 -1.111,0 -1.667,0.665 -2.222,2.163 -0.926,2.162 -16.849,41.429 -18.33,45.588 z"
   id="path150"
   inkscape:connector-curvature="0" />
		</g>
		<g
   style="enable-background:new"
   id="g156">
			<path
   style="fill:#009815"
   d="m 565.204,654.556 c -2.412,0.754 -17.562,5.67 -18.981,6.818 -0.976,0.789 -0.374,1.65 5.181,1.65 h 6.48 c 1.852,0 1.86,0.144 1.683,0.287 l -0.976,0.789 c -0.354,0.287 -0.674,0.395 -2.154,0.395 -2.408,0 -9.866,-0.107 -25.048,-0.107 -13.516,0 -17.724,0.107 -20.315,0.107 -1.109,0 -1.028,-0.215 -0.718,-0.466 l 0.843,-0.682 c 0.266,-0.216 0.584,-0.323 1.693,-0.323 h 4.814 c 4.443,0 9.508,-0.503 14.542,-1.579 3.522,-0.753 24.388,-6.997 34.4,-10.154 2.369,-0.718 26.902,-8.433 29.767,-9.401 1,-0.359 2.502,-0.825 1.693,-1.22 -0.378,-0.145 -0.896,-0.323 -0.719,-0.467 0.133,-0.107 0.68,-0.251 2.251,-0.323 6.234,-0.251 19.423,-1.184 22.954,-1.794 1.147,-0.179 1.879,-0.323 2.805,-0.323 1.111,0 1.217,0.216 1.283,0.61 0.724,2.261 5.229,10.298 5.908,12.595 0.8,2.799 4.582,9.474 5.979,10.441 1.683,1.185 5.965,1.615 8.742,1.615 h 6.295 c 1.111,0 1.118,0.144 0.896,0.323 l -0.843,0.682 c -0.267,0.215 -0.761,0.466 -2.243,0.466 -3.518,0 -7.272,-0.107 -30.972,-0.107 -15.367,0 -21.981,0.107 -25.685,0.107 -1.85,0 -1.769,-0.215 -1.458,-0.466 l 0.843,-0.682 c 0.222,-0.18 0.584,-0.323 1.51,-0.323 h 5.184 c 4.998,0 7.108,-0.358 7.151,-1.292 -0.069,-1.291 -1.614,-5.885 -2.237,-7.177 h -40.548 z m 40.656,-1.435 c -0.335,-1.077 -1.943,-8.612 -2.132,-9.509 -0.074,-0.539 -0.135,-0.79 -1.061,-0.79 -1.111,0 -1.844,0.144 -2.798,0.467 -1.502,0.466 -27.895,8.935 -30.484,9.832 z"
   id="path154"
   inkscape:connector-curvature="0" />
		</g>
		<g
   style="enable-background:new"
   id="g160">
			<path
   style="fill:#009815"
   d="m 699.091,783.422 c -0.548,3.896 -3.932,29.162 -4.052,34.486 -0.082,3.66 0.355,7.199 2.114,5.688 l 2.051,-1.764 c 0.586,-0.504 0.63,0.112 0.615,0.777 l -0.083,3.661 c -0.029,1.331 -0.1,1.88 -0.568,2.282 -0.762,0.655 -3.153,2.223 -7.959,6.354 -4.277,3.678 -5.579,5.285 -6.399,5.99 -0.352,0.303 -0.388,-0.645 -0.361,-1.81 l 0.071,-3.161 c 0.021,-0.999 0.092,-1.549 0.443,-1.851 l 1.523,-1.31 c 1.407,-1.209 2.866,-4.748 4.15,-10.748 0.898,-4.198 5.71,-36.728 7.973,-53.031 0.544,-3.73 6.095,-43.585 6.724,-48.53 0.213,-1.815 0.555,-4.229 0.186,-5.708 -0.161,-0.515 -0.377,-1.145 -0.361,-1.809 0.011,-0.5 0.143,-1.267 0.619,-2.002 1.901,-2.777 5.808,-10.379 6.751,-13.963 0.312,-1.084 0.503,-1.9 0.795,-2.152 0.353,-0.303 0.446,0.596 0.582,2.274 0.878,9.524 4.612,42.864 5.485,52.558 1.057,11.818 4.172,39.492 4.891,43.278 0.873,4.636 2.353,5.321 3.231,4.565 l 1.992,-1.713 c 0.352,-0.303 0.396,0.312 0.378,1.145 l -0.071,3.162 c -0.022,0.998 -0.108,2.213 -0.577,2.615 -1.113,0.957 -2.332,1.518 -9.834,7.966 -4.864,4.183 -6.928,6.443 -8.1,7.451 -0.586,0.504 -0.622,-0.442 -0.596,-1.608 l 0.071,-3.16 c 0.019,-0.832 0.092,-1.549 0.384,-1.801 l 1.642,-1.41 c 1.582,-1.361 2.147,-3.478 1.894,-7.502 -0.394,-5.535 -2.2,-24.868 -2.769,-30.254 z m 12.457,-17.234 c -0.416,-4.539 -3.09,-36.508 -3.406,-40.314 -0.178,-2.295 -0.269,-3.359 -0.562,-3.107 -0.353,0.303 -0.542,1.119 -0.753,2.77 -0.341,2.414 -6.264,46.014 -6.825,50.577 z"
   id="path158"
   inkscape:connector-curvature="0" />
		</g>
		<polygon
   id="rect3939"
   style="opacity:0.38980001;enable-background:new"
   points="743.2,839.87 743.205,624.739 669.211,682.797 669.206,897.928 " />
		<polygon
   id="rect2194"
   style="opacity:0.15249999;enable-background:new"
   points="671.565,680.864 456.334,680.467 529.621,622.711 744.852,623.108 " />
		
			<linearGradient
   id="rect2962_1_"
   gradientUnits="userSpaceOnUse"
   x1="408.05951"
   y1="492.1127"
   x2="414.68781"
   y2="492.1123"
   gradientTransform="matrix(0.9989,0,0,-1.0011,335.6375,1223.8306)">
			<stop
   offset="0"
   style="stop-color:#CDB16A"
   id="stop164" />
			<stop
   offset="0.0944"
   style="stop-color:#AD9D5F"
   id="stop166" />
			<stop
   offset="0.1416"
   style="stop-color:#B7A154"
   id="stop168" />
			<stop
   offset="0.1652"
   style="stop-color:#C28947"
   id="stop170" />
			<stop
   offset="0.1888"
   style="stop-color:#C9AC46"
   id="stop172" />
			<stop
   offset="0.1888"
   style="stop-color:#C0891F"
   id="stop174" />
			<stop
   offset="0.1888"
   style="stop-color:#BA883A"
   id="stop176" />
			<stop
   offset="0.1888"
   style="stop-color:#BDA976"
   id="stop178" />
			<stop
   offset="0.7132"
   style="stop-color:#C5AD4A"
   id="stop180" />
			<stop
   offset="0.7263"
   style="stop-color:#CDA955"
   id="stop182" />
			<stop
   offset="0.7263"
   style="stop-color:#D5AD43"
   id="stop184" />
			<stop
   offset="0.7394"
   style="stop-color:#D7A13C"
   id="stop186" />
			<stop
   offset="0.7525"
   style="stop-color:#B5955B"
   id="stop188" />
			<stop
   offset="0.7656"
   style="stop-color:#BEB459"
   id="stop190" />
			<stop
   offset="0.8173"
   style="stop-color:#B8A46C"
   id="stop192" />
			<stop
   offset="0.869"
   style="stop-color:#A39E35"
   id="stop194" />
			<stop
   offset="1"
   style="stop-color:#A8A056"
   id="stop196" />
		</linearGradient>
		
		
			<linearGradient
   id="rect2964_1_"
   gradientUnits="userSpaceOnUse"
   x1="768.13281"
   y1="119.4203"
   x2="779.90332"
   y2="113.9177"
   gradientTransform="matrix(1.5188,0.0028,0.5171,-0.4075,-415.1441,629.9685)">
			<stop
   offset="0"
   style="stop-color:#CDB16A"
   id="stop200" />
			<stop
   offset="0.0944"
   style="stop-color:#AD9D5F"
   id="stop202" />
			<stop
   offset="0.1416"
   style="stop-color:#B7A154"
   id="stop204" />
			<stop
   offset="0.1652"
   style="stop-color:#C28947"
   id="stop206" />
			<stop
   offset="0.1888"
   style="stop-color:#C9AC46"
   id="stop208" />
			<stop
   offset="0.1888"
   style="stop-color:#C0891F"
   id="stop210" />
			<stop
   offset="0.1888"
   style="stop-color:#BA883A"
   id="stop212" />
			<stop
   offset="0.1888"
   style="stop-color:#BDA976"
   id="stop214" />
			<stop
   offset="0.7132"
   style="stop-color:#C5AD4A"
   id="stop216" />
			<stop
   offset="0.7263"
   style="stop-color:#CDA955"
   id="stop218" />
			<stop
   offset="0.7263"
   style="stop-color:#D5AD43"
   id="stop220" />
			<stop
   offset="0.7394"
   style="stop-color:#D7A13C"
   id="stop222" />
			<stop
   offset="0.7525"
   style="stop-color:#B5955B"
   id="stop224" />
			<stop
   offset="0.7656"
   style="stop-color:#BEB459"
   id="stop226" />
			<stop
   offset="0.8173"
   style="stop-color:#B8A46C"
   id="stop228" />
			<stop
   offset="0.869"
   style="stop-color:#A39E35"
   id="stop230" />
			<stop
   offset="1"
   style="stop-color:#A8A056"
   id="stop232" />
		</linearGradient>
		
		
			<linearGradient
   id="rect2966_1_"
   gradientUnits="userSpaceOnUse"
   x1="861.95111"
   y1="508.59119"
   x2="864.95599"
   y2="528.34857"
   gradientTransform="matrix(-3.325862e-5,1.5124,-0.5202,0.4082,1305.5328,-865.3013)">
			<stop
   offset="0"
   style="stop-color:#CDB16A"
   id="stop236" />
			<stop
   offset="0.0944"
   style="stop-color:#AD9D5F"
   id="stop238" />
			<stop
   offset="0.1416"
   style="stop-color:#B7A154"
   id="stop240" />
			<stop
   offset="0.1652"
   style="stop-color:#C28947"
   id="stop242" />
			<stop
   offset="0.1888"
   style="stop-color:#C9AC46"
   id="stop244" />
			<stop
   offset="0.1888"
   style="stop-color:#C0891F"
   id="stop246" />
			<stop
   offset="0.1888"
   style="stop-color:#BA883A"
   id="stop248" />
			<stop
   offset="0.1888"
   style="stop-color:#BDA976"
   id="stop250" />
			<stop
   offset="0.7132"
   style="stop-color:#C5AD4A"
   id="stop252" />
			<stop
   offset="0.7263"
   style="stop-color:#CDA955"
   id="stop254" />
			<stop
   offset="0.7263"
   style="stop-color:#D5AD43"
   id="stop256" />
			<stop
   offset="0.7394"
   style="stop-color:#D7A13C"
   id="stop258" />
			<stop
   offset="0.7525"
   style="stop-color:#B5955B"
   id="stop260" />
			<stop
   offset="0.7656"
   style="stop-color:#BEB459"
   id="stop262" />
			<stop
   offset="0.8173"
   style="stop-color:#B8A46C"
   id="stop264" />
			<stop
   offset="0.869"
   style="stop-color:#A39E35"
   id="stop266" />
			<stop
   offset="1"
   style="stop-color:#A8A056"
   id="stop268" />
		</linearGradient>
		
		
		
			<linearGradient
   id="rect2970_1_"
   gradientUnits="userSpaceOnUse"
   x1="1345.7559"
   y1="-403.67789"
   x2="1352.2592"
   y2="-404.11951"
   gradientTransform="matrix(1.5188,0.0028,0.5171,-0.4075,-1052.2896,424.2556)">
			<stop
   offset="0"
   style="stop-color:#CDB16A"
   id="stop273" />
			<stop
   offset="0.0944"
   style="stop-color:#AD9D5F"
   id="stop275" />
			<stop
   offset="0.1416"
   style="stop-color:#B7A154"
   id="stop277" />
			<stop
   offset="0.1652"
   style="stop-color:#C28947"
   id="stop279" />
			<stop
   offset="0.1888"
   style="stop-color:#C9AC46"
   id="stop281" />
			<stop
   offset="0.1888"
   style="stop-color:#C0891F"
   id="stop283" />
			<stop
   offset="0.1888"
   style="stop-color:#BA883A"
   id="stop285" />
			<stop
   offset="0.1888"
   style="stop-color:#BDA976"
   id="stop287" />
			<stop
   offset="0.7132"
   style="stop-color:#C5AD4A"
   id="stop289" />
			<stop
   offset="0.7263"
   style="stop-color:#CDA955"
   id="stop291" />
			<stop
   offset="0.7263"
   style="stop-color:#D5AD43"
   id="stop293" />
			<stop
   offset="0.7394"
   style="stop-color:#D7A13C"
   id="stop295" />
			<stop
   offset="0.7525"
   style="stop-color:#B5955B"
   id="stop297" />
			<stop
   offset="0.7656"
   style="stop-color:#BEB459"
   id="stop299" />
			<stop
   offset="0.8173"
   style="stop-color:#B8A46C"
   id="stop301" />
			<stop
   offset="0.869"
   style="stop-color:#A39E35"
   id="stop303" />
			<stop
   offset="1"
   style="stop-color:#A8A056"
   id="stop305" />
		</linearGradient>
		
		
		
		
		
		
		
		
		
			<linearGradient
   id="rect3017_1_"
   gradientUnits="userSpaceOnUse"
   x1="408.06049"
   y1="492.11459"
   x2="414.68881"
   y2="492.11429"
   gradientTransform="matrix(0.9989,0,0,-1.0011,119.8035,1008.94)">
			<stop
   offset="0"
   style="stop-color:#CDB16A"
   id="stop325" />
			<stop
   offset="0.0944"
   style="stop-color:#AD9D5F"
   id="stop327" />
			<stop
   offset="0.1416"
   style="stop-color:#B7A154"
   id="stop329" />
			<stop
   offset="0.1652"
   style="stop-color:#C28947"
   id="stop331" />
			<stop
   offset="0.1888"
   style="stop-color:#C9AC46"
   id="stop333" />
			<stop
   offset="0.1888"
   style="stop-color:#C0891F"
   id="stop335" />
			<stop
   offset="0.1888"
   style="stop-color:#BA883A"
   id="stop337" />
			<stop
   offset="0.1888"
   style="stop-color:#BDA976"
   id="stop339" />
			<stop
   offset="0.7132"
   style="stop-color:#C5AD4A"
   id="stop341" />
			<stop
   offset="0.7263"
   style="stop-color:#CDA955"
   id="stop343" />
			<stop
   offset="0.7263"
   style="stop-color:#D5AD43"
   id="stop345" />
			<stop
   offset="0.7394"
   style="stop-color:#D7A13C"
   id="stop347" />
			<stop
   offset="0.7525"
   style="stop-color:#B5955B"
   id="stop349" />
			<stop
   offset="0.7656"
   style="stop-color:#BEB459"
   id="stop351" />
			<stop
   offset="0.8173"
   style="stop-color:#B8A46C"
   id="stop353" />
			<stop
   offset="0.869"
   style="stop-color:#A39E35"
   id="stop355" />
			<stop
   offset="1"
   style="stop-color:#A8A056"
   id="stop357" />
		</linearGradient>
		
		
			<linearGradient
   id="rect3019_1_"
   gradientUnits="userSpaceOnUse"
   x1="768.1308"
   y1="119.4213"
   x2="779.90131"
   y2="113.9187"
   gradientTransform="matrix(1.5188,0.0028,0.5171,-0.4075,-630.9791,415.0779)">
			<stop
   offset="0"
   style="stop-color:#CDB16A"
   id="stop361" />
			<stop
   offset="0.0944"
   style="stop-color:#AD9D5F"
   id="stop363" />
			<stop
   offset="0.1416"
   style="stop-color:#B7A154"
   id="stop365" />
			<stop
   offset="0.1652"
   style="stop-color:#C28947"
   id="stop367" />
			<stop
   offset="0.1888"
   style="stop-color:#C9AC46"
   id="stop369" />
			<stop
   offset="0.1888"
   style="stop-color:#C0891F"
   id="stop371" />
			<stop
   offset="0.1888"
   style="stop-color:#BA883A"
   id="stop373" />
			<stop
   offset="0.1888"
   style="stop-color:#BDA976"
   id="stop375" />
			<stop
   offset="0.7132"
   style="stop-color:#C5AD4A"
   id="stop377" />
			<stop
   offset="0.7263"
   style="stop-color:#CDA955"
   id="stop379" />
			<stop
   offset="0.7263"
   style="stop-color:#D5AD43"
   id="stop381" />
			<stop
   offset="0.7394"
   style="stop-color:#D7A13C"
   id="stop383" />
			<stop
   offset="0.7525"
   style="stop-color:#B5955B"
   id="stop385" />
			<stop
   offset="0.7656"
   style="stop-color:#BEB459"
   id="stop387" />
			<stop
   offset="0.8173"
   style="stop-color:#B8A46C"
   id="stop389" />
			<stop
   offset="0.869"
   style="stop-color:#A39E35"
   id="stop391" />
			<stop
   offset="1"
   style="stop-color:#A8A056"
   id="stop393" />
		</linearGradient>
		
		
			<linearGradient
   id="rect3021_1_"
   gradientUnits="userSpaceOnUse"
   x1="861.95312"
   y1="508.59119"
   x2="864.95789"
   y2="528.34851"
   gradientTransform="matrix(-3.325862e-5,1.5124,-0.5202,0.4082,1089.6979,-1080.192)">
			<stop
   offset="0"
   style="stop-color:#CDB16A"
   id="stop397" />
			<stop
   offset="0.0944"
   style="stop-color:#AD9D5F"
   id="stop399" />
			<stop
   offset="0.1416"
   style="stop-color:#B7A154"
   id="stop401" />
			<stop
   offset="0.1652"
   style="stop-color:#C28947"
   id="stop403" />
			<stop
   offset="0.1888"
   style="stop-color:#C9AC46"
   id="stop405" />
			<stop
   offset="0.1888"
   style="stop-color:#C0891F"
   id="stop407" />
			<stop
   offset="0.1888"
   style="stop-color:#BA883A"
   id="stop409" />
			<stop
   offset="0.1888"
   style="stop-color:#BDA976"
   id="stop411" />
			<stop
   offset="0.7132"
   style="stop-color:#C5AD4A"
   id="stop413" />
			<stop
   offset="0.7263"
   style="stop-color:#CDA955"
   id="stop415" />
			<stop
   offset="0.7263"
   style="stop-color:#D5AD43"
   id="stop417" />
			<stop
   offset="0.7394"
   style="stop-color:#D7A13C"
   id="stop419" />
			<stop
   offset="0.7525"
   style="stop-color:#B5955B"
   id="stop421" />
			<stop
   offset="0.7656"
   style="stop-color:#BEB459"
   id="stop423" />
			<stop
   offset="0.8173"
   style="stop-color:#B8A46C"
   id="stop425" />
			<stop
   offset="0.869"
   style="stop-color:#A39E35"
   id="stop427" />
			<stop
   offset="1"
   style="stop-color:#A8A056"
   id="stop429" />
		</linearGradient>
		
		
		
			<linearGradient
   id="rect3025_1_"
   gradientUnits="userSpaceOnUse"
   x1="1345.7568"
   y1="-403.67981"
   x2="1352.2601"
   y2="-404.12149"
   gradientTransform="matrix(1.5188,0.0028,0.5171,-0.4075,-1268.1235,209.364)">
			<stop
   offset="0"
   style="stop-color:#CDB16A"
   id="stop434" />
			<stop
   offset="0.0944"
   style="stop-color:#AD9D5F"
   id="stop436" />
			<stop
   offset="0.1416"
   style="stop-color:#B7A154"
   id="stop438" />
			<stop
   offset="0.1652"
   style="stop-color:#C28947"
   id="stop440" />
			<stop
   offset="0.1888"
   style="stop-color:#C9AC46"
   id="stop442" />
			<stop
   offset="0.1888"
   style="stop-color:#C0891F"
   id="stop444" />
			<stop
   offset="0.1888"
   style="stop-color:#BA883A"
   id="stop446" />
			<stop
   offset="0.1888"
   style="stop-color:#BDA976"
   id="stop448" />
			<stop
   offset="0.7132"
   style="stop-color:#C5AD4A"
   id="stop450" />
			<stop
   offset="0.7263"
   style="stop-color:#CDA955"
   id="stop452" />
			<stop
   offset="0.7263"
   style="stop-color:#D5AD43"
   id="stop454" />
			<stop
   offset="0.7394"
   style="stop-color:#D7A13C"
   id="stop456" />
			<stop
   offset="0.7525"
   style="stop-color:#B5955B"
   id="stop458" />
			<stop
   offset="0.7656"
   style="stop-color:#BEB459"
   id="stop460" />
			<stop
   offset="0.8173"
   style="stop-color:#B8A46C"
   id="stop462" />
			<stop
   offset="0.869"
   style="stop-color:#A39E35"
   id="stop464" />
			<stop
   offset="1"
   style="stop-color:#A8A056"
   id="stop466" />
		</linearGradient>
		
		
		
		
		
		
		
		
	</g>
</g>
</svg>